<?xml version="1.0" encoding="utf-8"?>
<!-- Generator: Adobe Illustrator 24.3.0, SVG Export Plug-In . SVG Version: 6.00 Build 0)  -->
<svg version="1.1" id="Layer_1" xmlns="http://www.w3.org/2000/svg" xmlns:xlink="http://www.w3.org/1999/xlink" x="0px" y="0px"
	 viewBox="0 0 1920 1080" style="enable-background:new 0 0 1920 1080;" xml:space="preserve">
<style type="text/css">
	.st0{fill:#CC3333;}
	.st1{fill:url(#SVGID_1_);stroke:url(#SVGID_2_);stroke-miterlimit:10;}
	.st2{fill:url(#SVGID_3_);stroke:url(#SVGID_4_);stroke-miterlimit:10;}
</style>
<g>
	<path class="st0" d="M758.36,387.26h174.4v73.02h-61.6v155.65l-48.67,77.39V460.28h-64.13V387.26z"/>
	<path class="st0" d="M955.58,693.32V592.76l46.39-73.46h56.78c7.61,0,13.26-3.06,16.98-9.18c3.71-6.12,5.58-12.97,5.58-20.55
		c0-7.58-1.86-14.35-5.58-20.33c-3.72-5.97-9.38-8.96-16.98-8.96h-67.68l-35.49-73.02h110.52c10.65,0,19.94,2.99,27.88,8.96
		c7.94,5.98,14.58,13.77,19.9,23.39c5.32,9.62,9.29,20.55,11.92,32.79c2.62,12.24,3.93,24.78,3.93,37.6c0,9.62-0.76,19.02-2.28,28.2
		c-1.52,9.18-3.72,17.93-6.59,26.23c-2.88,8.31-6.51,15.74-10.9,22.3c-4.4,6.56-9.55,12.02-15.46,16.4l40.05,110.18h-48.67
		l-36.5-101h-45.12v101H955.58z"/>
	<path class="st0" d="M1206.28,387.26l76.56,181.01V465.96l48.92-78.7v306.06h-48.67v-0.87L1206.28,511v182.33h-48.92V387.26
		H1206.28z"/>
	<path class="st0" d="M1359.64,552.09l46.39-73.45v143.85h31.94c7.77,0,14.53-2.33,20.28-7c5.74-4.66,10.56-10.78,14.45-18.36
		c3.89-7.58,6.8-16.25,8.75-26.02c1.94-9.76,2.92-19.6,2.92-29.51c0-10.2-0.97-20.18-2.92-29.95c-1.95-9.76-4.86-18.43-8.75-26.02
		c-3.89-7.58-8.71-13.7-14.45-18.36c-5.75-4.66-12.51-7-20.28-7h-42.84l-35.49-73.02h88.47c14.2,0,26.66,4.37,37.39,13.12
		c10.73,8.75,19.65,20.33,26.74,34.76c7.1,14.43,12.42,30.76,15.97,48.97c3.55,18.22,5.32,36.95,5.32,56.18s-1.77,37.97-5.32,56.18
		c-3.55,18.22-8.87,34.54-15.97,48.97c-7.1,14.43-16.01,26.02-26.74,34.76c-10.73,8.75-23.19,13.12-37.39,13.12h-88.47V552.09z"/>
	<path class="st0" d="M1556.35,693.32V387.26h48.92v129.42l60.84-129.42h54.5l-57.29,121.99l66.92,184.07h-49.68l-45.38-124.61
		l-29.91,63.83v60.78H1556.35z"/>
</g>
<g>
	<linearGradient id="SVGID_1_" gradientUnits="userSpaceOnUse" x1="368.9445" y1="375.9754" x2="472.3026" y2="375.9754">
		<stop  offset="0" style="stop-color:#CC3333"/>
		<stop  offset="0.233" style="stop-color:#FF3333"/>
		<stop  offset="1" style="stop-color:#C2353D"/>
	</linearGradient>
	<linearGradient id="SVGID_2_" gradientUnits="userSpaceOnUse" x1="368.4349" y1="376.0208" x2="472.9054" y2="376.0208">
		<stop  offset="0" style="stop-color:#FFFFFF"/>
		<stop  offset="1" style="stop-color:#000000"/>
	</linearGradient>
	<path class="st1" d="M368.94,415.91l103.36-17.05C450.31,300,370.37,327.09,368.94,415.91z"/>
	<linearGradient id="SVGID_3_" gradientUnits="userSpaceOnUse" x1="212.2917" y1="540.1779" x2="682.0795" y2="540.1779">
		<stop  offset="0" style="stop-color:#C7353C"/>
		<stop  offset="0.0505" style="stop-color:#DA3439"/>
		<stop  offset="0.1172" style="stop-color:#EB3436"/>
		<stop  offset="0.2004" style="stop-color:#F63334"/>
		<stop  offset="0.3169" style="stop-color:#FD3333"/>
		<stop  offset="0.6406" style="stop-color:#FF3333"/>
	</linearGradient>
	<linearGradient id="SVGID_4_" gradientUnits="userSpaceOnUse" x1="209.6142" y1="540.1779" x2="680.402" y2="540.1779">
		<stop  offset="0" style="stop-color:#FFFFFF"/>
		<stop  offset="1" style="stop-color:#000000"/>
	</linearGradient>
	<path class="st2" d="M677.92,412.79c-0.44-15.24-3.84-30.29-10.41-43.9c-16.97-35.15-48.39-50.44-80.51-56.18
		c-4-0.71-8.04-1.16-12.09-1.36c-77.96-3.83-165.62-3.29-259.42,0.02c-5.46,0.19-10.9,0.82-16.26,1.95
		c-42.48,8.99-69.24,34.75-81.76,71.69c-3.47,10.25-5.28,21.04-5.59,31.91c-2.72,96.7-2.65,187.68,2.7,267.84
		c1.74,26.72,15.5,52.37,53.7,73.52c13.43,7.44,28.34,11.5,43.54,12.06c64.51,2.4,161.33,1.17,262.99-0.61
		c14.56-0.25,28.93-3.73,42.06-10.31c41.28-20.68,60.4-52.43,60.68-93.57C680.75,587.2,680.51,502.17,677.92,412.79z M550.63,502.35
		l-35.06,45.31l20.91-155.88L550.63,502.35z M316.4,424.57l39-6.43c3.79-119.61,109.16-129.94,129.45-21.35l47.71-7.87l-9.42,71.16
		l0,0l-11.8,89.12c-10.43,13.83-22.21,26.86-35.15,39.2c-0.92,0.88-1.87,1.75-2.8,2.62c-0.84,0.78-1.66,1.57-2.51,2.35
		c-15.11,13.88-31.57,26.77-49.13,38.84c0,0-0.01,0.01-0.01,0.01l0,0c0,0,0,0,0,0l19.65-146.3l79.39-25.48l3.14-13.15l-95.11,30.41
		l-23.58,166.03c-17.62,11.06-39.36,18.88-63.67,24.66l25.94-193.15l-64.45,25.48L316.4,424.57z M302.25,516.32l48.73-19.73
		l-24.37,173.43c-22.37,0.27-35.71-9.77-44.8-24.66L302.25,516.32z M268.45,727.56l7.07-37.81c53.44,40.23,132.3,4.85,227.94-83.02
		l-16.51,124.93L268.45,727.56z M491.68,735.78l16.51-126.58l46.38-62.47l19.65,151.24L491.68,735.78z M615.45,494.89l-11-10.69
		c-207.51,272.88-376.5,263.84-349.78,79.73l2.78-3.23c0.36,173.37,144.99,152.82,329.7-93.76l-12.58-10.69l88.03-54.25
		L615.45,494.89z"/>
</g>
</svg>
